<?xml version="1.0" standalone="no"?>
<!DOCTYPE svg PUBLIC "-//W3C//DTD SVG 20010904//EN"
 "http://www.w3.org/TR/2001/REC-SVG-20010904/DTD/svg10.dtd">
<svg version="1.0" xmlns="http://www.w3.org/2000/svg"
 width="348.000000pt" height="348.000000pt" viewBox="0 0 348.000000 348.000000"
 preserveAspectRatio="xMidYMid meet">
<metadata>
Created by potrace 1.14, written by Peter Selinger 2001-2017
</metadata>
<g transform="translate(0.000000,348.000000) scale(0.100000,-0.100000)"
fill="#000000" stroke="none">
<path d="M3029 3380 c-77 -23 -129 -95 -129 -179 0 -28 6 -66 14 -84 15 -36
79 -97 101 -97 22 0 22 -833 1 -884 -25 -60 -43 -66 -207 -66 l-147 0 -19 38
c-21 41 -88 82 -136 82 -42 0 -102 -35 -126 -73 -32 -52 -29 -136 5 -177 34
-40 74 -60 119 -60 43 0 69 12 110 50 30 28 30 28 195 32 184 4 226 16 270 78
47 66 50 96 50 544 l0 421 49 27 c39 22 54 38 76 83 23 46 27 64 21 103 -16
118 -135 196 -247 162z m109 -120 c29 -27 37 -64 22 -101 -35 -84 -160 -56
-160 36 0 72 86 113 138 65z"/>
<path d="M248 3321 c-93 -30 -151 -107 -151 -200 0 -31 7 -69 15 -86 50 -94
169 -140 263 -101 l35 15 282 -199 c156 -110 312 -214 347 -232 61 -31 70 -33
200 -36 l136 -4 37 -34 c43 -39 74 -49 128 -41 138 18 176 195 59 275 -28 20
-44 23 -92 20 -49 -4 -62 -9 -93 -38 -19 -19 -38 -45 -41 -59 l-6 -24 -127 5
c-151 5 -110 -16 -497 257 -248 175 -261 185 -252 208 17 46 10 127 -14 174
-40 76 -152 124 -229 100z m121 -126 c39 -38 36 -98 -7 -136 -44 -40 -93 -40
-133 0 -48 49 -35 136 25 162 33 14 88 2 115 -26z"/>
<path d="M1145 3236 c-86 -37 -131 -115 -123 -210 12 -142 166 -225 295 -158
40 21 83 68 96 105 6 15 25 17 216 17 177 0 212 -2 225 -16 13 -12 16 -40 16
-143 l0 -128 -40 -32 c-70 -56 -78 -148 -19 -216 57 -65 149 -71 214 -14 78
69 64 198 -26 244 l-29 16 0 140 c0 151 -6 173 -55 219 -27 25 -27 25 -256 28
l-229 3 -19 37 c-52 100 -172 149 -266 108z m146 -115 c64 -64 16 -171 -76
-171 -36 0 -95 59 -95 95 0 92 107 140 171 76z"/>
<path d="M1355 2271 c-45 -21 -89 -61 -113 -106 -15 -27 -17 -84 -17 -540 0
-560 -3 -534 62 -599 62 -64 75 -66 427 -66 346 0 371 3 432 53 75 62 74 51
74 612 0 465 -2 503 -19 541 -22 48 -82 101 -131 114 -19 6 -177 10 -355 10
-289 0 -324 -2 -360 -19z"/>
<path d="M246 2230 c-43 -13 -89 -48 -117 -89 -20 -30 -24 -48 -24 -108 0 -63
3 -76 30 -115 77 -111 251 -119 328 -16 14 18 28 43 32 56 6 22 9 22 158 22
l152 0 17 -29 c52 -92 193 -92 256 -1 55 82 5 208 -92 230 -60 13 -106 -3
-152 -54 l-40 -46 -145 0 -145 0 -18 40 c-39 88 -147 138 -240 110z m125 -129
c31 -31 39 -83 19 -122 -13 -24 -61 -49 -94 -49 -35 0 -84 45 -92 85 -17 94
98 154 167 86z"/>
<path d="M465 1821 c-70 -32 -125 -111 -125 -178 0 -122 109 -224 225 -210 65
7 134 52 159 104 18 35 26 42 51 43 24 0 35 -7 48 -29 24 -40 98 -75 144 -68
174 29 178 271 5 303 -49 9 -118 -20 -145 -62 -17 -26 -29 -34 -53 -34 -25 0
-33 5 -38 23 -8 32 -72 96 -112 113 -46 19 -111 17 -159 -5z m147 -110 c27
-24 33 -36 33 -71 0 -35 -6 -47 -33 -71 -44 -40 -93 -40 -133 0 -22 22 -29 39
-29 68 0 92 94 135 162 74z"/>
<path d="M3145 1819 c-44 -13 -102 -65 -116 -104 l-13 -35 -183 0 -183 0 -43
44 c-52 55 -97 66 -163 41 -120 -46 -129 -214 -14 -277 64 -35 153 -10 188 53
l17 29 191 0 192 0 6 -25 c4 -14 23 -42 44 -63 107 -107 286 -66 337 77 26 74
13 139 -38 198 -55 63 -139 87 -222 62z m132 -114 c11 -8 26 -30 33 -50 16
-50 -11 -104 -62 -123 -81 -31 -158 52 -123 134 24 58 94 76 152 39z"/>
<path d="M884 1376 c-17 -8 -44 -30 -60 -50 l-29 -36 -176 0 c-201 0 -245 -10
-302 -67 -62 -61 -70 -99 -75 -360 -4 -227 -4 -232 -25 -239 -75 -22 -131
-107 -131 -194 2 -214 287 -279 385 -88 26 50 25 137 -1 188 -19 38 -66 80
-103 93 -17 6 -18 22 -15 239 4 330 -1 323 271 323 156 0 169 -1 179 -19 19
-34 60 -66 100 -78 78 -23 165 28 188 112 31 116 -97 226 -206 176z m-538
-864 c97 -78 12 -222 -101 -170 -59 27 -73 112 -26 159 35 34 93 39 127 11z"/>
<path d="M2440 1379 c-117 -49 -133 -194 -30 -271 60 -44 171 -23 207 40 l17
30 161 7 c283 12 295 -3 295 -364 l0 -186 -44 -24 c-120 -63 -144 -237 -44
-327 57 -53 151 -70 221 -41 64 27 127 121 127 191 0 69 -56 154 -120 182
l-40 18 0 202 c0 112 -5 227 -11 256 -16 78 -52 133 -107 165 -46 28 -49 28
-244 31 -184 3 -198 5 -203 23 -17 53 -125 93 -185 68z m771 -878 c31 -31 39
-83 19 -122 -13 -24 -61 -49 -94 -49 -33 0 -83 44 -91 81 -21 95 97 159 166
90z"/>
<path d="M1465 835 c-22 -8 -52 -28 -66 -45 l-25 -30 -190 0 c-282 -1 -335
-12 -388 -84 -16 -21 -22 -46 -25 -111 -3 -81 -4 -84 -30 -93 -118 -41 -168
-201 -95 -304 63 -90 192 -115 282 -56 47 32 92 114 92 170 0 74 -56 162 -121
189 -28 11 -29 14 -29 75 0 106 -4 104 268 104 l227 0 19 -34 c38 -70 142 -97
206 -53 55 37 74 71 74 130 0 108 -98 178 -199 142z m-577 -490 c15 -19 22
-39 22 -70 0 -36 -5 -47 -31 -69 -42 -36 -89 -35 -131 3 -24 22 -32 37 -32 63
0 41 26 85 57 98 36 15 90 3 115 -25z"/>
<path d="M1890 841 c-69 -21 -111 -76 -112 -145 -2 -117 120 -192 220 -136 22
13 48 38 58 56 l19 34 132 0 c182 0 193 -6 193 -117 0 -43 -3 -53 -21 -58 -32
-11 -88 -65 -110 -106 -34 -68 -19 -170 34 -227 64 -69 185 -82 265 -30 49 33
92 114 92 172 -1 75 -57 160 -122 185 -24 9 -28 16 -28 50 0 67 -20 140 -48
173 -42 50 -81 60 -246 66 l-149 5 -29 33 c-16 19 -46 38 -66 44 -42 11 -47
11 -82 1z m626 -479 c54 -43 55 -112 3 -156 -67 -56 -159 -13 -159 74 0 81 96
131 156 82z"/>
</g>
</svg>
